<?xml version="1.0" encoding="utf-8"?>
<!-- Generator: Adobe Illustrator 15.1.0, SVG Export Plug-In . SVG Version: 6.00 Build 0)  -->
<!DOCTYPE svg PUBLIC "-//W3C//DTD SVG 1.1//EN" "http://www.w3.org/Graphics/SVG/1.1/DTD/svg11.dtd">
<svg version="1.1" id="Capa_1" xmlns="http://www.w3.org/2000/svg" xmlns:xlink="http://www.w3.org/1999/xlink" x="0px" y="0px"
	 width="612px" height="612px" viewBox="0 0 612 612" enable-background="new 0 0 612 612" xml:space="preserve">
<path fill="none" stroke="#000000" stroke-width="4.61" stroke-linecap="round" stroke-linejoin="round" stroke-miterlimit="10" d="
	M0,612"/>
<g>
	<path fill="#3A3A3A" d="M499.403,263.366v304.555H42.106V105.625h317.417l41.918-41.917H21.148
		c-11.574,0-20.958,9.395-20.958,20.958v504.213c0,11.585,9.384,20.959,20.958,20.959h499.214c11.573,0,20.958-9.374,20.958-20.959
		v-367.43L499.403,263.366z"/>
	<path fill="#3A3A3A" d="M277.911,425.57l-89.52-89.524L447.188,77.257l89.523,89.524L277.911,425.57z M144.244,424.69
		l-25.251,69.753l69.748-25.258l69.748-25.257l-44.496-44.496l-44.496-44.476L144.244,424.69z M603.378,100.099
		c13.288-13.284,10.576-37.537-6.054-54.177l-29.283-29.289c-9.527-9.518-21.558-14.471-32.595-14.471
		c-8.232,0-15.913,2.743-21.589,8.433l-44.786,44.782l89.519,89.524L603.378,100.099z"/>
</g>
</svg>
